<svg xmlns="http://www.w3.org/2000/svg" viewBox="0 0 1430 394.3"><style>.st0{fill:#8a5fff}</style><path class="st0" d="M578.8 274.2c-8.5 8.8-19.8 13-33 13s-24.8-4.2-33.2-13c-7.8-8-12.2-19.2-12.2-32.8V107.2h28V243c0 12.8 8 19 17.5 19s17.2-6.2 17.2-19V107.2h28v134.2c-.1 13.5-4.6 24.8-12.3 32.8zM630 277.2c-8.2-6.2-13.2-16.2-13.2-32v-138h26.5v136.5c0 11.8 5.8 17.8 18 17.8v23.8c-12.3-.1-22.5-1.4-31.3-8.1zM697 277.2c-8.2-6.5-13.2-16.5-13.2-32v-68h-13.5V157h13.5v-37.2h26.5V157h18.2v20.2h-18.2v66.5c0 12.2 6.2 17.8 18.8 17.8v23.8c-12.6-.1-23.1-1.1-32.1-8.1zM795.5 177.2c-12.5 0-22 8.5-22 22.8v85.2H747V153.4h25.5v14c2.8-4 7-7.8 11.5-10.5 5.8-3.5 12.8-5.5 20.5-5.5v25.8h-9zM868.8 285.2V274c-2.2 3.2-5 6.8-8 8.8-4 2.8-8.2 4.5-15 4.5-11 0-18-3.2-24.8-11-5.2-6.2-8-16.2-8-29.5 0-12 4.2-22.5 12.2-29.5 6.5-5.8 15-9 30.2-9h11.8v-18.2c0-9.8-4.5-15.2-12.8-15.2-4 0-6.8 1.5-8.8 3.8-2.8 3-4 6.8-4 12.2h-26.5c0-10.5 3-20.2 11.2-28.5 6.2-6.2 17-10.8 27.8-10.8 11 0 21.2 2.8 28 9.8 7 7 11.5 16.8 11.5 31v93h-24.8zm-1.5-58.3h-8.8c-5.8 0-10 .5-13.8 4-3.2 3-5.2 9.5-5.2 14.8 0 11.8 4.8 18.2 13.8 18.2 8 0 14-6.8 14-17.5v-19.5zM1050 285.2h-29.2L995.3 150 970 285.2h-29.2l-33.8-178h30.8l17.5 135 24.5-135h31l24.8 135 17.2-135h30.8l-33.6 178zM1098.5 136.7v-29.2h29.2v29.2h-29.2zm1.5 148.5V156.9h26.5v128.2H1100zM1203 285.2v-10c-1.2 2.8-6 6.8-8.8 8.2-3.8 2.5-8.5 3.8-13.2 3.8-10 0-17-2.8-23.2-10.2-8.8-10.5-9.2-29.2-9.2-57.8s.5-47 9.2-57.5c6-7.2 13-10.2 23.2-10.2 4.8 0 9.5 1.2 13.2 3.5 2.8 1.5 5.5 4.2 7.8 7v-54.8h26.5v178H1203zm-1-94.3c0-5.8-1.2-9.5-4-12.2-2.5-2.5-5.2-3.8-9-3.8-4 0-7.5 2-9.8 5.2-3.5 4.5-4.2 14-4.2 39s.8 34.8 4.2 39.2c2.2 3.2 5.8 5 9.8 5 3.8 0 6.5-1 9-3.5 2.8-2.8 4-6.5 4-12.2v-56.7zM1277 226.9c0 15 .8 26.2 4 31.2 2 3 5.5 5.2 10.2 5.2 4.2 0 7.8-1.8 10-5 2.2-2.8 3.2-7.5 3.2-12h26.5c-.5 11.8-3.2 21.8-11.2 30.2-7 7.5-16.2 10.5-28.5 10.5-11.8 0-20.5-2.5-28.5-10.8-11-11.5-12.2-33.2-12.2-57.2 0-23.8 1.2-45.8 12.2-57.2 8-8.2 17.5-10.5 28.2-10.5 11 0 20 2.2 28.2 10.5 10.5 10.5 12.2 33.5 12.2 65H1277zm24.2-46.8c-2.2-3.2-5.2-5.2-10.2-5.2s-8 2-10.2 5.2c-2.8 4-3.8 11.8-3.8 27.2h28c0-15.4-1-23.2-3.8-27.2zM1420.8 273.2c-7.8 10.8-18.5 14-31.2 14s-23.5-3.2-31.2-14c-8.2-11.5-9.2-31.8-9.2-54s1-42.5 9.2-54c7.8-10.8 18.5-13.8 31.2-13.8s23.5 3 31.2 13.8c8.2 11.5 9.2 31.8 9.2 54s-.9 42.5-9.2 54zm-21-92.8c-2.2-3.5-6.2-5.5-10.2-5.5s-8 2-10.2 5.5c-3.5 6-3.8 19.2-3.8 38.8s.2 33 3.8 39c2.2 3.5 6.2 5.2 10.2 5.2s8-1.8 10.2-5.2c3.5-6 3.8-19.5 3.8-39s-.3-32.8-3.8-38.8z"/><g><circle class="st0" cx="196" cy="197.2" r="196"/><path d="M112.7 300.2c-7 0-14.1-2-20.2-5.8-11.6-7.2-18.7-19.6-18.7-33.2V161c0-9.5 7.7-17.1 17.1-17.1S108 151.6 108 161v100.1c0 2.1 1.2 3.4 2.1 4 1.1.6 2.6 1.1 4.6.2l97.7-50.1c8.4-4.3 18.8-.9 23.1 7.5 4.3 8.4.9 18.8-7.5 23.1l-97.7 50.1c-5.5 2.8-11.5 4.3-17.6 4.3zm44.9-84.4V115.7c0-2.1 1.2-3.4 2.1-4 1.1-.6 2.6-1.1 4.6-.2l97.7 50.1c8.4 4.3 18.8.9 23.1-7.5 4.3-8.4.9-18.8-7.5-23.1l-97.7-50.1c-12.1-6.3-26.3-5.7-38.1 1.4-11.6 7.2-18.7 19.6-18.7 33.2v100.1c0 9.5 7.7 17.1 17.1 17.1 9.6.1 17.4-7.4 17.4-16.9zm41.8 99.9l97.7-50.1c13-6.7 21.1-19.9 21.1-34.6s-8.1-27.9-21.1-34.6l-97.7-50.1c-8.4-4.3-18.8-.9-23.1 7.5-4.3 8.4-.9 18.8 7.5 23.1l97.7 50.1c2.1 1.1 2.4 2.8 2.4 4.1 0 1.4-.5 3.1-2.4 4.1l-97.7 49.9c-8.4 4.3-11.8 14.7-7.5 23.1 3.1 6 9 9.3 15.3 9.3 2.6.2 5.2-.5 7.8-1.8z" fill="#fff"/></g></svg>
