<svg version="1.1" xmlns="http://www.w3.org/2000/svg" viewBox="0 0 256 256">
<circle fill="#8A5FFF" cx="128" cy="128" r="128"/>
<path fill="#FFFFFF" d="M73.6,195.3c-4.6,0-9.2-1.3-13.2-3.8c-7.6-4.7-12.2-12.8-12.2-21.7v-65.4c0-6.2,5-11.2,11.2-11.2
	s11.2,5,11.2,11.2v65.4c0,1.4,0.8,2.2,1.4,2.6c0.7,0.4,1.7,0.7,3,0.1l63.8-32.7c5.5-2.8,12.3-0.6,15.1,4.9
	c2.8,5.5,0.6,12.3-4.9,15.1l-63.8,32.7C81.5,194.3,77.6,195.3,73.6,195.3z M102.9,140.2V74.8c0-1.4,0.8-2.2,1.4-2.6
	c0.7-0.4,1.7-0.7,3-0.1l63.8,32.7c5.5,2.8,12.3,0.6,15.1-4.9c2.8-5.5,0.6-12.3-4.9-15.1l-63.8-32.7c-7.9-4.1-17.2-3.7-24.9,0.9
	c-7.6,4.7-12.2,12.8-12.2,21.7v65.4c0,6.2,5,11.2,11.2,11.2S102.9,146.4,102.9,140.2z M130.2,205.4l63.8-32.7
	c8.5-4.4,13.8-13,13.8-22.6s-5.3-18.2-13.8-22.6l-63.8-32.7c-5.5-2.8-12.3-0.6-15.1,4.9c-2.8,5.5-0.6,12.3,4.9,15.1l63.8,32.7
	c1.4,0.7,1.6,1.8,1.6,2.7s-0.3,2-1.6,2.7L120,185.5c-5.5,2.8-7.7,9.6-4.9,15.1c2,3.9,5.9,6.1,10,6.1
	C126.8,206.7,128.5,206.3,130.2,205.4z"/>
</svg>
